Coordinates
version=1
nRows=29
nColumns=24
inDegrees=yes

Units are S.I. units (second, meters, Newtons, ...)
Angles are in degrees.

endheader
time	pelvis_tilt	pelvis_list	pelvis_rotation	pelvis_tx	pelvis_ty	pelvis_tz	hip_flexion_r	hip_adduction_r	hip_rotation_r	knee_angle_r	ankle_angle_r	subtalar_angle_r	mtp_angle_r	hip_flexion_l	hip_adduction_l	hip_rotation_l	knee_angle_l	ankle_angle_l	subtalar_angle_l	mtp_angle_l	lumbar_extension	lumbar_bending	lumbar_rotation
      4.92000000	     58.78444145	    -17.19809067	     -0.86401206	      0.53121740	      0.95331765	     -0.23178238	     24.30117282	     -3.57141784	    -20.67396109	    -69.82844925	    -10.78287708	      0.00000000	      0.00000000	     28.67739418	    -14.48569267	     20.02411528	    -17.05884742	    -36.82709280	      0.00000000	      0.00000000	      0.00000000	      0.00000000	      0.00000000
      4.93000000	     58.77734529	    -17.20398224	     -0.87694677	      0.53122039	      0.95330450	     -0.23176032	     24.33669385	     -3.54944445	    -20.62689201	    -69.80187321	    -10.73974672	      0.00000000	      0.00000000	     28.69610547	    -14.49030574	     20.03578390	    -17.05802748	    -36.84619189	      0.00000000	      0.00000000	      0.00000000	      0.00000000	      0.00000000
      4.94000000	     58.77927778	    -17.21004380	     -0.88069046	      0.53122463	      0.95330028	     -0.23172536	     24.36619706	     -3.53451800	    -20.58701259	    -69.77064851	    -10.69914077	      0.00000000	      0.00000000	     28.70655205	    -14.49225514	     20.05577545	    -17.05715854	    -36.86485552	      0.00000000	      0.00000000	      0.00000000	      0.00000000	      0.00000000
      4.95000000	     58.79131818	    -17.21556159	     -0.87080023	      0.53122635	      0.95330655	     -0.23171973	     24.38823116	     -3.52458768	    -20.55326658	    -69.74113392	    -10.66441708	      0.00000000	      0.00000000	     28.70926258	    -14.48989663	     20.08501174	    -17.05705034	    -36.88290353	      0.00000000	      0.00000000	      0.00000000	      0.00000000	      0.00000000
      4.96000000	     58.81444991	    -17.22110511	     -0.84471857	      0.53121960	      0.95331203	     -0.23176065	     24.40503284	     -3.51816084	    -20.52364719	    -69.71820484	    -10.63681498	      0.00000000	      0.00000000	     28.70692890	    -14.48277223	     20.12218570	    -17.05835994	    -36.90038342	      0.00000000	      0.00000000	      0.00000000	      0.00000000	      0.00000000
      4.97000000	     58.84785056	    -17.22839836	     -0.80428113	      0.53119295	      0.95328587	     -0.23181462	     24.42263905	     -3.51515862	    -20.49553983	    -69.70364660	    -10.61464689	      0.00000000	      0.00000000	     28.70375187	    -14.47273481	     20.16384909	    -17.06164238	    -36.91712735	      0.00000000	      0.00000000	      0.00000000	      0.00000000	      0.00000000
      4.98000000	     58.88613661	    -17.23809889	     -0.75776784	      0.53113184	      0.95320164	     -0.23184453	     24.44862250	     -3.51452032	    -20.46666483	    -69.69714308	    -10.59391786	      0.00000000	      0.00000000	     28.70418778	    -14.46327941	     20.20522302	    -17.06721017	    -36.93246235	      0.00000000	      0.00000000	      0.00000000	      0.00000000	      0.00000000
      4.99000000	     58.91878530	    -17.24872497	     -0.71886599	      0.53104672	      0.95308180	     -0.23184644	     24.48952091	     -3.51251864	    -20.43521126	    -69.69800143	    -10.56998679	      0.00000000	      0.00000000	     28.71182460	    -14.45781757	     20.24150355	    -17.07486489	    -36.94523257	      0.00000000	      0.00000000	      0.00000000	      0.00000000	      0.00000000
      5.00000000	     58.93365226	    -17.25804969	     -0.70139073	      0.53098369	      0.95299057	     -0.23183377	     24.54973657	     -3.50469501	    -20.39876590	    -69.70567589	    -10.53918983	      0.00000000	      0.00000000	     28.72898956	    -14.45857531	     20.26926841	    -17.08372517	    -36.95414770	      0.00000000	      0.00000000	      0.00000000	      0.00000000	      0.00000000
      5.01000000	     58.92295763	    -17.26488565	     -0.71266072	      0.53098667	      0.95297616	     -0.23181416	     24.63193431	     -3.48929795	    -20.35386868	    -69.71942786	    -10.49967849	      0.00000000	      0.00000000	     28.75689996	    -14.46656596	     20.28748045	    -17.09237920	    -36.95832562	      0.00000000	      0.00000000	      0.00000000	      0.00000000	      0.00000000
      5.02000000	     58.88720066	    -17.26970379	     -0.75036194	      0.53105381	      0.95302482	     -0.23178376	     24.73736043	     -3.46845671	    -20.29751467	    -69.73849024	    -10.45148540	      0.00000000	      0.00000000	     28.79558462	    -14.48150911	     20.29767685	    -17.09946830	    -36.95778145	      0.00000000	      0.00000000	      0.00000000	      0.00000000	      0.00000000
      5.03000000	     58.83428146	    -17.27395346	     -0.80483269	      0.53113019	      0.95307056	     -0.23173750	     24.86539820	     -3.44573337	    -20.22965259	    -69.76285631	    -10.39625545	      0.00000000	      0.00000000	     28.84338103	    -14.50110201	     20.30328750	    -17.10454546	    -36.95359804	      0.00000000	      0.00000000	      0.00000000	      0.00000000	      0.00000000
      5.04000000	     58.77501196	    -17.27887098	     -0.86460911	      0.53116543	      0.95307133	     -0.23168486	     25.01285677	     -3.42266962	    -20.15417493	    -69.79362609	    -10.33694696	      0.00000000	      0.00000000	     28.89697229	    -14.52115595	     20.30842879	    -17.10868443	    -36.94764932	      0.00000000	      0.00000000	      0.00000000	      0.00000000	      0.00000000
      5.05000000	     58.71788907	    -17.28499989	     -0.92139256	      0.53117819	      0.95305740	     -0.23164550	     25.17331328	     -3.39803415	    -20.07702036	    -69.83247668	    -10.27754634	      0.00000000	      0.00000000	     28.95279701	    -14.53770696	     20.31669973	    -17.11417886	    -36.94195569	      0.00000000	      0.00000000	      0.00000000	      0.00000000	      0.00000000
      5.06000000	     58.66644567	    -17.29258977	     -0.97162476	      0.53120466	      0.95305991	     -0.23162762	     25.33802869	     -3.37001526	    -20.00290930	    -69.88052544	    -10.22265928	      0.00000000	      0.00000000	     29.00896144	    -14.54960369	     20.33041171	    -17.12334894	    -36.93792922	      0.00000000	      0.00000000	      0.00000000	      0.00000000	      0.00000000
      5.07000000	     58.62032321	    -17.30233163	     -1.01536811	      0.53122338	      0.95304796	     -0.23161689	     25.49948685	     -3.33860234	    -19.93321856	    -69.93707656	    -10.17677693	      0.00000000	      0.00000000	     29.06574198	    -14.55943262	     20.35044317	    -17.13743818	    -36.93581882	      0.00000000	      0.00000000	      0.00000000	      0.00000000	      0.00000000
      5.08000000	     58.57749002	    -17.31558402	     -1.05515643	      0.53121178	      0.95299649	     -0.23158905	     25.65479840	     -3.30538485	    -19.86629408	    -69.99945981	    -10.14342018	      0.00000000	      0.00000000	     29.12419216	    -14.57177619	     20.37661223	    -17.15633741	    -36.93457363	      0.00000000	      0.00000000	      0.00000000	      0.00000000	      0.00000000
      5.09000000	     58.53527652	    -17.33330344	     -1.09518853	      0.53120300	      0.95294466	     -0.23153207	     25.80565233	     -3.27077407	    -19.79965590	    -70.06460769	    -10.12469594	      0.00000000	      0.00000000	     29.18451724	    -14.58980930	     20.40821800	    -17.17892385	    -36.93222681	      0.00000000	      0.00000000	      0.00000000	      0.00000000	      0.00000000
      5.10000000	     58.49120153	    -17.35454337	     -1.13939474	      0.53122999	      0.95293367	     -0.23145643	     25.95577157	     -3.23215520	    -19.73192693	    -70.13074513	    -10.12137962	      0.00000000	      0.00000000	     29.24573234	    -14.61315289	     20.44445574	    -17.20364246	    -36.92672470	      0.00000000	      0.00000000	      0.00000000	      0.00000000	      0.00000000
      5.11000000	     58.44447143	    -17.37647391	     -1.18910927	      0.53127982	      0.95294865	     -0.23138816	     26.10849764	     -3.18547376	    -19.66288854	    -70.19753008	    -10.13315718	      0.00000000	      0.00000000	     29.30652401	    -14.63851497	     20.48459477	    -17.22903794	    -36.91684980	      0.00000000	      0.00000000	      0.00000000	      0.00000000	      0.00000000
      5.12000000	     58.39631688	    -17.39639082	     -1.24243010	      0.53131759	      0.95295611	     -0.23134427	     26.26490288	     -3.12902250	    -19.59212454	    -70.26505113	    -10.15848150	      0.00000000	      0.00000000	     29.36629876	    -14.66205997	     20.52792937	    -17.25405153	    -36.90278600	      0.00000000	      0.00000000	      0.00000000	      0.00000000	      0.00000000
      5.13000000	     58.34863661	    -17.41331483	     -1.29537061	      0.53132412	      0.95294544	     -0.23131532	     26.42268186	     -3.06579263	    -19.51825095	    -70.33274558	    -10.19383954	      0.00000000	      0.00000000	     29.42544235	    -14.68136503	     20.57360630	    -17.27812016	    -36.88610736	      0.00000000	      0.00000000	      0.00000000	      0.00000000	      0.00000000
      5.14000000	     58.30293061	    -17.42756344	     -1.34367755	      0.53131364	      0.95291885	     -0.23127564	     26.57706629	     -3.00194056	    -19.43997845	    -70.39883852	    -10.23303732	      0.00000000	      0.00000000	     29.48454276	    -14.69537254	     20.62046833	    -17.30114164	    -36.86930439	      0.00000000	      0.00000000	      0.00000000	      0.00000000	      0.00000000
      5.15000000	     58.26037446	    -17.43928978	     -1.38439529	      0.53131125	      0.95287880	     -0.23121539	     26.72333612	     -2.94273383	    -19.35797013	    -70.46063500	    -10.26755582	      0.00000000	      0.00000000	     29.54336602	    -14.70314731	     20.66708653	    -17.32333517	    -36.85511079	      0.00000000	      0.00000000	      0.00000000	      0.00000000	      0.00000000
      5.16000000	     58.22232010	    -17.44781828	     -1.41644940	      0.53132401	      0.95283757	     -0.23116541	     26.85893623	     -2.88988433	    -19.27542137	    -70.51524181	    -10.28849502	      0.00000000	      0.00000000	     29.60054589	    -14.70347272	     20.71207081	    -17.34504729	    -36.84584362	      0.00000000	      0.00000000	      0.00000000	      0.00000000	      0.00000000
      5.17000000	     58.19006804	    -17.45303952	     -1.44015803	      0.53134366	      0.95281161	     -0.23116009	     26.98345364	     -2.84292061	    -19.19641661	    -70.56002774	    -10.28934624	      0.00000000	      0.00000000	     29.65419068	    -14.69585892	     20.75452838	    -17.36654121	    -36.84288531	      0.00000000	      0.00000000	      0.00000000	      0.00000000	      0.00000000
      5.18000000	     58.16391947	    -17.45652823	     -1.45651783	      0.53135911	      0.95279880	     -0.23118396	     27.09673977	     -2.80174195	    -19.12401992	    -70.59319515	    -10.26823952	      0.00000000	      0.00000000	     29.70294566	    -14.68160342	     20.79437963	    -17.38771867	    -36.84639152	      0.00000000	      0.00000000	      0.00000000	      0.00000000	      0.00000000
      5.19000000	     58.14289798	    -17.45990192	     -1.46688577	      0.53136603	      0.95278569	     -0.23119648	     27.19767620	     -2.76619976	    -19.06031525	    -70.61460712	    -10.22873394	      0.00000000	      0.00000000	     29.74656604	    -14.66328807	     20.83225816	    -17.40786024	    -36.85527472	      0.00000000	      0.00000000	      0.00000000	      0.00000000	      0.00000000
      5.20000000	     58.12543935	    -17.46285695	     -1.47270362	      0.53136734	      0.95276748	     -0.23118931	     27.28490772	     -2.73452348	    -19.00726341	    -70.62572104	    -10.17878410	      0.00000000	      0.00000000	     29.78547593	    -14.64339264	     20.86905243	    -17.42571833	    -36.86746368	      0.00000000	      0.00000000	      0.00000000	      0.00000000	      0.00000000
